<?xml version="1.0" standalone="no"?>
<!DOCTYPE svg PUBLIC "-//W3C//DTD SVG 20010904//EN"
 "http://www.w3.org/TR/2001/REC-SVG-20010904/DTD/svg10.dtd">
<svg version="1.0" xmlns="http://www.w3.org/2000/svg"
 width="500.000000pt" height="500.000000pt" viewBox="0 0 500.000000 500.000000"
 preserveAspectRatio="xMidYMid meet">
<metadata>
Created by potrace 1.14, written by Peter Selinger 2001-2017
</metadata>
<g transform="translate(0.000000,500.000000) scale(0.100000,-0.100000)"
fill="#000000" stroke="none">
<path d="M331 4984 c-159 -42 -287 -176 -320 -332 -8 -38 -11 -655 -11 -2155
0 -2303 -4 -2157 58 -2271 55 -101 176 -191 290 -215 38 -8 655 -11 2155 -11
2303 0 2157 -4 2271 58 101 55 191 176 215 290 8 38 11 655 11 2155 0 2303 4
2157 -58 2271 -55 101 -176 191 -290 215 -38 8 -654 11 -2160 10 -1808 0
-2115 -2 -2161 -15z m1823 -996 c155 -88 285 -163 290 -166 4 -2 74 61 155
142 l146 146 205 -205 c113 -113 210 -205 216 -205 6 0 102 52 213 116 111 64
203 115 205 113 35 -47 1124 -1955 1119 -1960 -6 -6 -1867 -1083 -1935 -1120
-13 -7 -25 6 -64 74 -31 53 -78 114 -138 175 -93 96 -156 140 -351 242 -157
83 -1480 850 -1483 860 -4 10 884 1554 942 1641 17 25 65 104 106 177 41 72
79 132 84 132 5 0 136 -73 290 -162z"/>
</g>
</svg>
