<svg viewBox="0 0 1000 724" xmlns="http://www.w3.org/2000/svg" font-family="inherit" role="img" aria-labelledby="hero-title"><title id="hero-title">The tech team's PC, tablet or phone, the main screen, a confidence monitor and a musician's tablet, all on the same Wi-Fi</title><path class="scene-link" d="M680 290C648 290 660 244.5 600 244.5" stroke="#3ABAB4" stroke-opacity=".75" stroke-width="1.5" stroke-dasharray="4 6" stroke-linecap="round" fill="none"/><path class="scene-link" d="M680 290C707 290 748.0 287 748.0 227" stroke="#3ABAB4" stroke-opacity=".75" stroke-width="1.5" stroke-dasharray="4 6" stroke-linecap="round" fill="none"/><path class="scene-link" d="M680 308C680 356 925.2 332 925.2 392" stroke="#3ABAB4" stroke-opacity=".75" stroke-width="1.5" stroke-dasharray="4 6" stroke-linecap="round" fill="none"/><path class="scene-link" d="M680 308C680 356 318.0 288 318.0 348" stroke="#3ABAB4" stroke-opacity=".75" stroke-width="1.5" stroke-dasharray="4 6" stroke-linecap="round" fill="none"/><text x="0" y="14" text-anchor="start" font-size="11" font-weight="700" letter-spacing="1.2" fill="#9B9CA3">TECH PC / TABLET / PHONE</text><text x="640" y="14" text-anchor="start" font-size="11" font-weight="700" letter-spacing="1.2" fill="#9B9CA3">MAIN SCREEN</text><rect x="640" y="24" width="360" height="203" rx="6" fill="#0B0B0C" stroke="#3A3B41"/><foreignObject x="645" y="29" width="350" height="193" class="hero-main"><div xmlns="http://www.w3.org/1999/xhtml" class="live-slide"><video class="live-bg" data-song="how" src="__BG_HOW__" poster="__POSTER_HOW__" muted="" loop="" playsinline="" preload="none"></video><video class="live-bg is-hidden" data-song="bml" src="__BG_BML__" poster="__POSTER_BML__" muted="" loop="" playsinline="" preload="none"></video><div class="live-lyric" style="font-size:17px">When the music fades<br/>All is stripped away<br/>And I simply come</div><div class="deck-slide" data-slide="0" style="position:absolute;inset:0;container-type:size;overflow:hidden;background:#F6F0E4;color:#6B2412;font-family:Arial,Helvetica,sans-serif;"><div style="padding:7cqw 6cqw"><div style="font-size:2.6cqw;font-weight:700;letter-spacing:.3cqw;opacity:.85">GENESIS 9:13</div><div style="font-size:4.8cqw;line-height:1.35;margin-top:2.6cqw;white-space:nowrap">I have set my rainbow in the clouds,<br/>and it will be the sign of the<br/>covenant between me and the earth.”</div></div></div><div class="deck-slide" data-slide="1" style="position:absolute;inset:0;container-type:size;overflow:hidden;background:#F6F0E4;color:#6B2412;font-family:Arial,Helvetica,sans-serif;"><div style="padding:7cqw 6cqw"><div style="font-size:2.6cqw;font-weight:700;letter-spacing:.3cqw;opacity:.85">GENESIS 9:14-15</div><div style="font-size:4.8cqw;line-height:1.35;margin-top:2.6cqw;white-space:nowrap">Whenever I bring clouds over the earth<br/>and the rainbow appears in the clouds,<br/>I will remember my covenant between<br/>me and you and all living creatures.</div></div><svg class="ink" data-tool="highlight" viewBox="0 0 160 90" style="position:absolute;inset:0;width:100%;height:100%;mix-blend-mode:multiply"><path pathLength="1" d="M9.6 36.4C39.6 36.9 98.0 35.8 138.0 36.4" fill="none" stroke="#FDE047" stroke-width="4.8" stroke-linecap="round" stroke-linejoin="round"/></svg><svg class="ink" data-tool="pencil" viewBox="0 0 160 90" style="position:absolute;inset:0;width:100%;height:100%"><path pathLength="1" d="M25.3 41.3C44.9 40.8 62.3 43.6 61.8 46.7C61.2 49.9 47.7 51.9 33.7 51.9C18.2 51.9 5.6 49.6 5.6 46.7C5.6 43.6 19.6 41.5 37.9 41.0" fill="none" stroke="#EF4444" stroke-width="1.1" stroke-linecap="round" stroke-linejoin="round"/><path pathLength="1" d="M141 38.7L140.4 48.7" fill="none" stroke="#EF4444" stroke-width="1.1" stroke-linecap="round" stroke-linejoin="round"/><path pathLength="1" d="M140.2 52.3l.1 .1" fill="none" stroke="#EF4444" stroke-width="1.1" stroke-linecap="round" stroke-linejoin="round"/><path pathLength="1" d="M146 38.7L145.4 48.7" fill="none" stroke="#EF4444" stroke-width="1.1" stroke-linecap="round" stroke-linejoin="round"/><path pathLength="1" d="M145.2 52.3l.1 .1" fill="none" stroke="#EF4444" stroke-width="1.1" stroke-linecap="round" stroke-linejoin="round"/></svg></div><div class="deck-slide" data-slide="2" style="position:absolute;inset:0;container-type:size;overflow:hidden;background:#F6F0E4;color:#6B2412;font-family:Arial,Helvetica,sans-serif;"><div style="padding:7cqw 6cqw"><div style="font-size:2.6cqw;font-weight:700;letter-spacing:.3cqw;opacity:.85">GENESIS 9:16</div><div style="font-size:4.8cqw;line-height:1.35;margin-top:2.6cqw;white-space:nowrap">Whenever the rainbow appears in the<br/>clouds, I will see it and remember the<br/>everlasting covenant between God and<br/>all living creatures of every kind on<br/>the earth.</div></div></div></div></foreignObject><text x="660" y="382" text-anchor="start" font-size="11" font-weight="700" letter-spacing="1.2" fill="#9B9CA3">CONFIDENCE MONITOR</text><rect x="660" y="392" width="340" height="200" rx="6" fill="#0B0B0C" stroke="#3A3B41"/><rect x="665" y="397" width="330" height="190" rx="3" fill="#000"/><text x="673" y="412" font-size="8.5" font-weight="700" letter-spacing="1" fill="#9B9CA3">NOW</text><foreignObject x="673" y="419" width="165.0" height="92.8125" class="cm-now"><div xmlns="http://www.w3.org/1999/xhtml" class="live-slide"><img class="live-bg" data-song="how" src="__POSTER_HOW__" alt=""/><img class="live-bg is-hidden" data-song="bml" src="__POSTER_BML__" alt=""/><div class="live-lyric" style="font-size:8px">When the music fades<br/>All is stripped away<br/>And I simply come</div><div class="deck-slide" data-slide="0" style="position:absolute;inset:0;container-type:size;overflow:hidden;background:#F6F0E4;color:#6B2412;font-family:Arial,Helvetica,sans-serif;"><div style="padding:7cqw 6cqw"><div style="font-size:2.6cqw;font-weight:700;letter-spacing:.3cqw;opacity:.85">GENESIS 9:13</div><div style="font-size:4.8cqw;line-height:1.35;margin-top:2.6cqw;white-space:nowrap">I have set my rainbow in the clouds,<br/>and it will be the sign of the<br/>covenant between me and the earth.”</div></div></div><div class="deck-slide" data-slide="1" style="position:absolute;inset:0;container-type:size;overflow:hidden;background:#F6F0E4;color:#6B2412;font-family:Arial,Helvetica,sans-serif;"><div style="padding:7cqw 6cqw"><div style="font-size:2.6cqw;font-weight:700;letter-spacing:.3cqw;opacity:.85">GENESIS 9:14-15</div><div style="font-size:4.8cqw;line-height:1.35;margin-top:2.6cqw;white-space:nowrap">Whenever I bring clouds over the earth<br/>and the rainbow appears in the clouds,<br/>I will remember my covenant between<br/>me and you and all living creatures.</div></div><svg class="ink" data-tool="highlight" viewBox="0 0 160 90" style="position:absolute;inset:0;width:100%;height:100%;mix-blend-mode:multiply"><path pathLength="1" d="M9.6 36.4C39.6 36.9 98.0 35.8 138.0 36.4" fill="none" stroke="#FDE047" stroke-width="4.8" stroke-linecap="round" stroke-linejoin="round"/></svg><svg class="ink" data-tool="pencil" viewBox="0 0 160 90" style="position:absolute;inset:0;width:100%;height:100%"><path pathLength="1" d="M25.3 41.3C44.9 40.8 62.3 43.6 61.8 46.7C61.2 49.9 47.7 51.9 33.7 51.9C18.2 51.9 5.6 49.6 5.6 46.7C5.6 43.6 19.6 41.5 37.9 41.0" fill="none" stroke="#EF4444" stroke-width="1.1" stroke-linecap="round" stroke-linejoin="round"/><path pathLength="1" d="M141 38.7L140.4 48.7" fill="none" stroke="#EF4444" stroke-width="1.1" stroke-linecap="round" stroke-linejoin="round"/><path pathLength="1" d="M140.2 52.3l.1 .1" fill="none" stroke="#EF4444" stroke-width="1.1" stroke-linecap="round" stroke-linejoin="round"/><path pathLength="1" d="M146 38.7L145.4 48.7" fill="none" stroke="#EF4444" stroke-width="1.1" stroke-linecap="round" stroke-linejoin="round"/><path pathLength="1" d="M145.2 52.3l.1 .1" fill="none" stroke="#EF4444" stroke-width="1.1" stroke-linecap="round" stroke-linejoin="round"/></svg></div><div class="deck-slide" data-slide="2" style="position:absolute;inset:0;container-type:size;overflow:hidden;background:#F6F0E4;color:#6B2412;font-family:Arial,Helvetica,sans-serif;"><div style="padding:7cqw 6cqw"><div style="font-size:2.6cqw;font-weight:700;letter-spacing:.3cqw;opacity:.85">GENESIS 9:16</div><div style="font-size:4.8cqw;line-height:1.35;margin-top:2.6cqw;white-space:nowrap">Whenever the rainbow appears in the<br/>clouds, I will see it and remember the<br/>everlasting covenant between God and<br/>all living creatures of every kind on<br/>the earth.</div></div></div></div></foreignObject><text x="850.0" y="412" font-size="8.5" font-weight="700" letter-spacing="1" fill="#9B9CA3">NEXT</text><foreignObject x="850.0" y="419" width="137.0" height="132.0"><div xmlns="http://www.w3.org/1999/xhtml" style="width:100%;height:100%"><div class="cm-next-text" style="color:#fff;font-weight:600;font-size:10px;line-height:1.3">Longing just to bring<br/>something that's of worth<br/>That will bless Your heart</div><div class="deck cm-next-deck" data-offset="1" style="position:relative;width:100%;height:77.1px;overflow:hidden;background:#111"><div style="position:absolute;inset:0;display:flex;align-items:center;justify-content:center;font-size:8px;color:#9B9CA3">End of slides</div><div class="deck-slide" data-slide="0" style="position:absolute;inset:0;container-type:size;overflow:hidden;background:#F6F0E4;color:#6B2412;font-family:Arial,Helvetica,sans-serif;"><div style="padding:7cqw 6cqw"><div style="font-size:2.6cqw;font-weight:700;letter-spacing:.3cqw;opacity:.85">GENESIS 9:13</div><div style="font-size:4.8cqw;line-height:1.35;margin-top:2.6cqw;white-space:nowrap">I have set my rainbow in the clouds,<br/>and it will be the sign of the<br/>covenant between me and the earth.”</div></div></div><div class="deck-slide" data-slide="1" style="position:absolute;inset:0;container-type:size;overflow:hidden;background:#F6F0E4;color:#6B2412;font-family:Arial,Helvetica,sans-serif;"><div style="padding:7cqw 6cqw"><div style="font-size:2.6cqw;font-weight:700;letter-spacing:.3cqw;opacity:.85">GENESIS 9:14-15</div><div style="font-size:4.8cqw;line-height:1.35;margin-top:2.6cqw;white-space:nowrap">Whenever I bring clouds over the earth<br/>and the rainbow appears in the clouds,<br/>I will remember my covenant between<br/>me and you and all living creatures.</div></div><svg class="ink" data-tool="highlight" viewBox="0 0 160 90" style="position:absolute;inset:0;width:100%;height:100%;mix-blend-mode:multiply"><path pathLength="1" d="M9.6 36.4C39.6 36.9 98.0 35.8 138.0 36.4" fill="none" stroke="#FDE047" stroke-width="4.8" stroke-linecap="round" stroke-linejoin="round"/></svg><svg class="ink" data-tool="pencil" viewBox="0 0 160 90" style="position:absolute;inset:0;width:100%;height:100%"><path pathLength="1" d="M25.3 41.3C44.9 40.8 62.3 43.6 61.8 46.7C61.2 49.9 47.7 51.9 33.7 51.9C18.2 51.9 5.6 49.6 5.6 46.7C5.6 43.6 19.6 41.5 37.9 41.0" fill="none" stroke="#EF4444" stroke-width="1.1" stroke-linecap="round" stroke-linejoin="round"/><path pathLength="1" d="M141 38.7L140.4 48.7" fill="none" stroke="#EF4444" stroke-width="1.1" stroke-linecap="round" stroke-linejoin="round"/><path pathLength="1" d="M140.2 52.3l.1 .1" fill="none" stroke="#EF4444" stroke-width="1.1" stroke-linecap="round" stroke-linejoin="round"/><path pathLength="1" d="M146 38.7L145.4 48.7" fill="none" stroke="#EF4444" stroke-width="1.1" stroke-linecap="round" stroke-linejoin="round"/><path pathLength="1" d="M145.2 52.3l.1 .1" fill="none" stroke="#EF4444" stroke-width="1.1" stroke-linecap="round" stroke-linejoin="round"/></svg></div><div class="deck-slide" data-slide="2" style="position:absolute;inset:0;container-type:size;overflow:hidden;background:#F6F0E4;color:#6B2412;font-family:Arial,Helvetica,sans-serif;"><div style="padding:7cqw 6cqw"><div style="font-size:2.6cqw;font-weight:700;letter-spacing:.3cqw;opacity:.85">GENESIS 9:16</div><div style="font-size:4.8cqw;line-height:1.35;margin-top:2.6cqw;white-space:nowrap">Whenever the rainbow appears in the<br/>clouds, I will see it and remember the<br/>everlasting covenant between God and<br/>all living creatures of every kind on<br/>the earth.</div></div></div></div></div></foreignObject><text x="673" y="577" font-size="20" font-weight="700" fill="#FFFFFF" font-variant-numeric="tabular-nums">08:42</text><text x="985" y="576" text-anchor="end" font-size="11" font-weight="600" fill="#9B9CA3">10:42 am</text><text class="tablet-label" x="0" y="338" text-anchor="start" font-size="11" font-weight="700" letter-spacing="1.2" fill="#9B9CA3">MUSICIAN'S TABLET</text><g class="turn-chip"><rect x="142" y="326" width="88" height="17" rx="8.5" fill="#E4572E"/><text x="150" y="338" font-size="9.5" font-weight="700" fill="#FFFFFF">Pastor in control</text></g><rect class="tablet-frame" x="0" y="348" width="530" height="376" rx="16" fill="#0B0B0C" stroke="#3A3B41"/><rect x="8" y="356" width="514" height="360" rx="9" fill="#000"/><g class="tablet-chords"><g font-family="ui-monospace, Menlo, Consolas, monospace" font-size="8.5"><g class="cs-song" data-song="how" data-title="The Heart of Worship" data-key="D"><g class="cs-scroll"><text x="22.0" y="400.5" font-size="7.0" font-weight="700" letter-spacing="1" fill="#6B7280">VERSE 1</text><g class="cs-line" data-line="0" data-y="22"><rect class="cs-bar" x="13.0" y="409.5" width="3" height="23.5"/><text class="cs-chord" x="22.0" y="417.0">D</text><text class="cs-chord" x="98.5" y="417.0">A</text><text class="cs-lyric" x="22.0" y="427.5">When the music fades</text></g><g class="cs-line" data-line="1" data-y="46"><rect class="cs-bar" x="13.0" y="432.5" width="3" height="23.5"/><text class="cs-chord" x="98.5" y="440.0">Em</text><text class="cs-lyric" x="22.0" y="450.5">All is stripped away</text></g><g class="cs-line" data-line="2" data-y="68"><rect class="cs-bar" x="13.0" y="455.5" width="3" height="23.5"/><text class="cs-chord" x="88.3" y="463.0">A</text><text class="cs-lyric" x="22.0" y="473.5">And I simply come</text></g><g class="cs-line" data-line="3" data-y="92"><rect class="cs-bar" x="13.0" y="478.5" width="3" height="23.5"/><text class="cs-chord" x="22.0" y="486.0">D</text><text class="cs-chord" x="103.6" y="486.0">A</text><text class="cs-lyric" x="22.0" y="496.5">Longing just to bring</text></g><g class="cs-line" data-line="4" data-y="114"><rect class="cs-bar" x="13.0" y="501.5" width="3" height="23.5"/><text class="cs-chord" x="113.8" y="509.0">Em</text><text class="cs-lyric" x="22.0" y="519.5">something that's of worth</text></g><g class="cs-line" data-line="5" data-y="138"><rect class="cs-bar" x="13.0" y="524.5" width="3" height="23.5"/><text class="cs-chord" x="118.9" y="532.0">A</text><text class="cs-lyric" x="22.0" y="542.5">That will bless Your heart</text></g><text x="22.0" y="563.0" font-size="7.0" font-weight="700" letter-spacing="1" fill="#6B7280">PRE-CHORUS</text><g class="cs-line" data-line="6" data-y="185"><rect class="cs-bar" x="13.0" y="572.0" width="3" height="23.5"/><text class="cs-chord" x="22.0" y="579.5">Em</text><text class="cs-chord" x="98.5" y="579.5">D/F#</text><text class="cs-chord" x="154.6" y="579.5">A</text><text class="cs-lyric" x="22.0" y="590.0">I'll bring You more than a song</text></g><g class="cs-line" data-line="7" data-y="208"><rect class="cs-bar" x="13.0" y="595.0" width="3" height="23.5"/><text class="cs-chord" x="52.6" y="602.5">Em</text><text class="cs-lyric" x="22.0" y="613.0">For a song in itself</text></g><g class="cs-line" data-line="8" data-y="231"><rect class="cs-bar" x="13.0" y="618.0" width="3" height="23.5"/><text class="cs-chord" x="22.0" y="625.5">D/F#</text><text class="cs-chord" x="124.0" y="625.5">A</text><text class="cs-lyric" x="22.0" y="636.0">is not what You have required</text></g><g class="cs-line" data-line="9" data-y="254"><rect class="cs-bar" x="13.0" y="641.0" width="3" height="23.5"/><text class="cs-chord" x="22.0" y="648.5">Em</text><text class="cs-chord" x="98.5" y="648.5">D/F#</text><text class="cs-chord" x="139.3" y="648.5">A</text><text class="cs-lyric" x="22.0" y="659.0">You search much deeper within</text></g><g class="cs-line" data-line="10" data-y="277"><rect class="cs-bar" x="13.0" y="664.0" width="3" height="13.0"/><text class="cs-lyric" x="22.0" y="671.5">Through the way things appear</text></g><g class="cs-line" data-line="11" data-y="290"><rect class="cs-bar" x="13.0" y="676.5" width="3" height="23.5"/><text class="cs-chord" x="22.0" y="684.0">Em</text><text class="cs-chord" x="98.5" y="684.0">D/F#</text><text class="cs-chord" x="139.3" y="684.0">A</text><text class="cs-lyric" x="22.0" y="694.5">You're looking into my heart</text></g><text x="202.1" y="400.5" font-size="7.0" font-weight="700" letter-spacing="1" fill="#6B7280">CHORUS</text><g class="cs-line" data-line="12" data-y="22"><rect class="cs-bar" x="193.1" y="409.5" width="3" height="23.5"/><text class="cs-chord" x="202.1" y="417.0">D</text><text class="cs-chord" x="314.3" y="417.0">A/C#</text><text class="cs-lyric" x="202.1" y="427.5">I'm coming back to the heart of worship</text></g><g class="cs-line" data-line="13" data-y="46"><rect class="cs-bar" x="193.1" y="432.5" width="3" height="23.5"/><text class="cs-chord" x="248.0" y="440.0">Em</text><text class="cs-chord" x="344.9" y="440.0">G</text><text class="cs-chord" x="401.0" y="440.0">A</text><text class="cs-lyric" x="202.1" y="450.5">And it's all about You, it's all about You</text></g><g class="cs-line" data-line="14" data-y="68"><rect class="cs-bar" x="193.1" y="455.5" width="3" height="23.5"/><text class="cs-chord" x="202.1" y="463.0">D</text><text class="cs-lyric" x="202.1" y="473.5">Jesus</text></g><g class="cs-line" data-line="15" data-y="92"><rect class="cs-bar" x="193.1" y="478.5" width="3" height="23.5"/><text class="cs-chord" x="202.1" y="486.0">D</text><text class="cs-chord" x="324.5" y="486.0">A/C#</text><text class="cs-lyric" x="202.1" y="496.5">I'm sorry, Lord, for the thing I've made it</text></g><g class="cs-line" data-line="16" data-y="114"><rect class="cs-bar" x="193.1" y="501.5" width="3" height="23.5"/><text class="cs-chord" x="253.1" y="509.0">Em</text><text class="cs-chord" x="350.0" y="509.0">G</text><text class="cs-chord" x="406.1" y="509.0">A</text><text class="cs-lyric" x="202.1" y="519.5">When it's all about You, it's all about You</text></g><g class="cs-line" data-line="17" data-y="138"><rect class="cs-bar" x="193.1" y="524.5" width="3" height="23.5"/><text class="cs-chord" x="202.1" y="532.0">D</text><text class="cs-lyric" x="202.1" y="542.5">Jesus</text></g><text x="202.1" y="563.0" font-size="7.0" font-weight="700" letter-spacing="1" fill="#6B7280">VERSE 2</text><g class="cs-line" data-line="18" data-y="185"><rect class="cs-bar" x="193.1" y="572.0" width="3" height="23.5"/><text class="cs-chord" x="202.1" y="579.5">D</text><text class="cs-chord" x="283.7" y="579.5">A</text><text class="cs-lyric" x="202.1" y="590.0">King of endless worth</text></g><g class="cs-line" data-line="19" data-y="208"><rect class="cs-bar" x="193.1" y="595.0" width="3" height="23.5"/><text class="cs-chord" x="263.3" y="602.5">Em</text><text class="cs-lyric" x="202.1" y="613.0">no one could express</text></g><g class="cs-line" data-line="20" data-y="231"><rect class="cs-bar" x="193.1" y="618.0" width="3" height="23.5"/><text class="cs-chord" x="263.3" y="625.5">A</text><text class="cs-lyric" x="202.1" y="636.0">How much You deserve</text></g><g class="cs-line" data-line="21" data-y="254"><rect class="cs-bar" x="193.1" y="641.0" width="3" height="23.5"/><text class="cs-chord" x="202.1" y="648.5">D</text><text class="cs-chord" x="299.0" y="648.5">A</text><text class="cs-lyric" x="202.1" y="659.0">Though I'm weak and poor</text></g><g class="cs-line" data-line="22" data-y="277"><rect class="cs-bar" x="193.1" y="664.0" width="3" height="23.5"/><text class="cs-chord" x="268.4" y="671.5">Em</text><text class="cs-lyric" x="202.1" y="682.0">all I have is Yours</text></g><g class="cs-line" data-line="23" data-y="300"><rect class="cs-bar" x="193.1" y="687.0" width="3" height="23.5"/><text class="cs-chord" x="263.3" y="694.5">A</text><text class="cs-lyric" x="202.1" y="705.0">Ev'ry single breath</text></g></g></g><g class="cs-song is-hidden" data-song="bml" data-title="Build My Life" data-key="G"><g class="cs-scroll"><text x="22.0" y="400.5" font-size="7.0" font-weight="700" letter-spacing="1" fill="#6B7280">VERSE 1</text><g class="cs-line" data-line="0" data-y="22"><rect class="cs-bar" x="13.0" y="409.5" width="3" height="23.5"/><text class="cs-chord" x="22.0" y="417.0">G</text><text class="cs-chord" x="113.8" y="417.0">C/G</text><text class="cs-lyric" x="22.0" y="427.5">Worthy of every song</text></g><g class="cs-line" data-line="1" data-y="46"><rect class="cs-bar" x="13.0" y="432.5" width="3" height="13.0"/><text class="cs-lyric" x="22.0" y="440.0">We could ever sing</text></g><g class="cs-line" data-line="2" data-y="58"><rect class="cs-bar" x="13.0" y="445.0" width="3" height="23.5"/><text class="cs-chord" x="22.0" y="452.5">G/B</text><text class="cs-chord" x="129.1" y="452.5">C/G</text><text class="cs-lyric" x="22.0" y="463.0">Worthy of all the praise</text></g><g class="cs-line" data-line="3" data-y="81"><rect class="cs-bar" x="13.0" y="468.0" width="3" height="13.0"/><text class="cs-lyric" x="22.0" y="475.5">We could ever bring</text></g><g class="cs-line" data-line="4" data-y="94"><rect class="cs-bar" x="13.0" y="480.5" width="3" height="23.5"/><text class="cs-chord" x="22.0" y="488.0">G</text><text class="cs-chord" x="118.9" y="488.0">C/G</text><text class="cs-lyric" x="22.0" y="498.5">Worthy of every breath</text></g><g class="cs-line" data-line="5" data-y="116"><rect class="cs-bar" x="13.0" y="503.5" width="3" height="13.0"/><text class="cs-lyric" x="22.0" y="511.0">We could ever breathe</text></g><g class="cs-line" data-line="6" data-y="129"><rect class="cs-bar" x="13.0" y="516.0" width="3" height="13.0"/><text class="cs-lyric" x="22.0" y="523.5">We live for You</text></g><text x="22.0" y="544.0" font-size="7.0" font-weight="700" letter-spacing="1" fill="#6B7280">VERSE 2</text><g class="cs-line" data-line="7" data-y="166"><rect class="cs-bar" x="13.0" y="553.0" width="3" height="23.5"/><text class="cs-chord" x="22.0" y="560.5">G</text><text class="cs-lyric" x="22.0" y="571.0">Jesus, the Name</text></g><g class="cs-line" data-line="8" data-y="189"><rect class="cs-bar" x="13.0" y="576.0" width="3" height="23.5"/><text class="cs-chord" x="32.2" y="583.5">C/G</text><text class="cs-lyric" x="22.0" y="594.0">Above every other name</text></g><g class="cs-line" data-line="9" data-y="212"><rect class="cs-bar" x="13.0" y="599.0" width="3" height="23.5"/><text class="cs-chord" x="22.0" y="606.5">G/B</text><text class="cs-chord" x="118.9" y="606.5">C/G</text><text class="cs-lyric" x="22.0" y="617.0">Jesus, the only One</text></g><g class="cs-line" data-line="10" data-y="235"><rect class="cs-bar" x="13.0" y="622.0" width="3" height="13.0"/><text class="cs-lyric" x="22.0" y="629.5">Who could ever save</text></g><g class="cs-line" data-line="11" data-y="248"><rect class="cs-bar" x="13.0" y="634.5" width="3" height="23.5"/><text class="cs-chord" x="22.0" y="642.0">G</text><text class="cs-chord" x="118.9" y="642.0">C/G</text><text class="cs-lyric" x="22.0" y="652.5">Worthy of every breath</text></g><g class="cs-line" data-line="12" data-y="270"><rect class="cs-bar" x="13.0" y="657.5" width="3" height="13.0"/><text class="cs-lyric" x="22.0" y="665.0">We could ever breathe</text></g><g class="cs-line" data-line="13" data-y="283"><rect class="cs-bar" x="13.0" y="670.0" width="3" height="23.5"/><text class="cs-chord" x="88.3" y="677.5">G/B</text><text class="cs-lyric" x="22.0" y="688.0">We live for You</text></g><g class="cs-line" data-line="14" data-y="306"><rect class="cs-bar" x="13.0" y="693.0" width="3" height="23.5"/><text class="cs-chord" x="103.6" y="700.5">C/G</text><text class="cs-lyric" x="22.0" y="711.0">Oh, we live for You</text></g><text x="166.39999999999998" y="400.5" font-size="7.0" font-weight="700" letter-spacing="1" fill="#6B7280">CHORUS</text><g class="cs-line" data-line="15" data-y="22"><rect class="cs-bar" x="157.39999999999998" y="409.5" width="3" height="23.5"/><text class="cs-chord" x="166.4" y="417.0">Cmaj9</text><text class="cs-chord" x="273.5" y="417.0">Am7</text><text class="cs-lyric" x="166.39999999999998" y="427.5">Holy, there is no one like You</text></g><g class="cs-line" data-line="16" data-y="46"><rect class="cs-bar" x="157.39999999999998" y="432.5" width="3" height="23.5"/><text class="cs-chord" x="242.9" y="440.0">G</text><text class="cs-lyric" x="166.39999999999998" y="450.5">There is none beside You</text></g><g class="cs-line" data-line="17" data-y="68"><rect class="cs-bar" x="157.39999999999998" y="455.5" width="3" height="23.5"/><text class="cs-chord" x="217.4" y="463.0">Em7</text><text class="cs-lyric" x="166.39999999999998" y="473.5">Open up my eyes in wonder</text></g><g class="cs-line" data-line="18" data-y="92"><rect class="cs-bar" x="157.39999999999998" y="478.5" width="3" height="23.5"/><text class="cs-chord" x="166.4" y="486.0">Cmaj9</text><text class="cs-chord" x="283.7" y="486.0">Am7</text><text class="cs-lyric" x="166.39999999999998" y="496.5">Show me who You are and fill me</text></g><g class="cs-line" data-line="19" data-y="114"><rect class="cs-bar" x="157.39999999999998" y="501.5" width="3" height="23.5"/><text class="cs-chord" x="263.3" y="509.0">G</text><text class="cs-lyric" x="166.39999999999998" y="519.5">With Your heart and lead me</text></g><g class="cs-line" data-line="20" data-y="138"><rect class="cs-bar" x="157.39999999999998" y="524.5" width="3" height="23.5"/><text class="cs-chord" x="237.8" y="532.0">Em7</text><text class="cs-chord" x="319.4" y="532.0">Cmaj9</text><text class="cs-lyric" x="166.39999999999998" y="542.5">In Your love to those around me</text></g><text x="166.39999999999998" y="563.0" font-size="7.0" font-weight="700" letter-spacing="1" fill="#6B7280">BRIDGE</text><g class="cs-line" data-line="21" data-y="185"><rect class="cs-bar" x="157.39999999999998" y="572.0" width="3" height="23.5"/><text class="cs-chord" x="166.4" y="579.5">Cmaj9</text><text class="cs-chord" x="253.1" y="579.5">Dsus</text><text class="cs-chord" x="329.6" y="579.5">Em7</text><text class="cs-lyric" x="166.39999999999998" y="590.0">I will build my life upon Your love</text></g><g class="cs-line" data-line="22" data-y="208"><rect class="cs-bar" x="157.39999999999998" y="595.0" width="3" height="23.5"/><text class="cs-chord" x="207.2" y="602.5">G/B</text><text class="cs-lyric" x="166.39999999999998" y="613.0">It is a firm foundation</text></g><g class="cs-line" data-line="23" data-y="231"><rect class="cs-bar" x="157.39999999999998" y="618.0" width="3" height="23.5"/><text class="cs-chord" x="166.4" y="625.5">Cmaj9</text><text class="cs-chord" x="248.0" y="625.5">Dsus</text><text class="cs-chord" x="314.3" y="625.5">Em7</text><text class="cs-lyric" x="166.39999999999998" y="636.0">I will put my trust in You alone</text></g><g class="cs-line" data-line="24" data-y="254"><rect class="cs-bar" x="157.39999999999998" y="641.0" width="3" height="23.5"/><text class="cs-chord" x="222.5" y="648.5">G/B</text><text class="cs-lyric" x="166.39999999999998" y="659.0">And I will not be shaken</text></g></g></g></g><text class="cs-title" x="22" y="376" font-size="12" font-weight="700" fill="#FFFFFF">The Heart of Worship</text><text class="cs-key" x="508" y="376" text-anchor="end" font-size="10.5" font-weight="600" fill="#F5B547">Key D</text><line x1="8" y1="386" x2="522" y2="386" stroke="#FFFFFF" stroke-opacity=".08"/></g><foreignObject x="8" y="356" width="514" height="360" class="tablet-pastor"><div xmlns="http://www.w3.org/1999/xhtml" class="pv-root" style="position:relative;width:100%;height:100%;display:flex;overflow:hidden;border-radius:9px;background:#fff;color:#212529;font-family:'Noto Sans','Open Sans',Arial,sans-serif"><div style="flex:1;min-width:0;padding:8px;display:flex;flex-direction:column"><div class="pv-main" style="position:relative"><div class="deck" data-offset="0" style="position:relative;width:100%;aspect-ratio:16/9;overflow:hidden;background:#F1F3F5;box-shadow:inset 0 0 0 1px #DEE2E6"><div style="position:absolute;inset:0;display:flex;align-items:center;justify-content:center;font-size:7px;color:#6C757D"></div><div class="deck-slide" data-slide="0" style="position:absolute;inset:0;container-type:size;overflow:hidden;background:#F6F0E4;color:#6B2412;font-family:Arial,Helvetica,sans-serif;"><div style="padding:7cqw 6cqw"><div style="font-size:2.6cqw;font-weight:700;letter-spacing:.3cqw;opacity:.85">GENESIS 9:13</div><div style="font-size:4.8cqw;line-height:1.35;margin-top:2.6cqw;white-space:nowrap">I have set my rainbow in the clouds,<br/>and it will be the sign of the<br/>covenant between me and the earth.”</div></div></div><div class="deck-slide" data-slide="1" style="position:absolute;inset:0;container-type:size;overflow:hidden;background:#F6F0E4;color:#6B2412;font-family:Arial,Helvetica,sans-serif;"><div style="padding:7cqw 6cqw"><div style="font-size:2.6cqw;font-weight:700;letter-spacing:.3cqw;opacity:.85">GENESIS 9:14-15</div><div style="font-size:4.8cqw;line-height:1.35;margin-top:2.6cqw;white-space:nowrap">Whenever I bring clouds over the earth<br/>and the rainbow appears in the clouds,<br/>I will remember my covenant between<br/>me and you and all living creatures.</div></div><svg class="ink" data-tool="highlight" viewBox="0 0 160 90" style="position:absolute;inset:0;width:100%;height:100%;mix-blend-mode:multiply"><path pathLength="1" d="M9.6 36.4C39.6 36.9 98.0 35.8 138.0 36.4" fill="none" stroke="#FDE047" stroke-width="4.8" stroke-linecap="round" stroke-linejoin="round"/></svg><svg class="ink" data-tool="pencil" viewBox="0 0 160 90" style="position:absolute;inset:0;width:100%;height:100%"><path pathLength="1" d="M25.3 41.3C44.9 40.8 62.3 43.6 61.8 46.7C61.2 49.9 47.7 51.9 33.7 51.9C18.2 51.9 5.6 49.6 5.6 46.7C5.6 43.6 19.6 41.5 37.9 41.0" fill="none" stroke="#EF4444" stroke-width="1.1" stroke-linecap="round" stroke-linejoin="round"/><path pathLength="1" d="M141 38.7L140.4 48.7" fill="none" stroke="#EF4444" stroke-width="1.1" stroke-linecap="round" stroke-linejoin="round"/><path pathLength="1" d="M140.2 52.3l.1 .1" fill="none" stroke="#EF4444" stroke-width="1.1" stroke-linecap="round" stroke-linejoin="round"/><path pathLength="1" d="M146 38.7L145.4 48.7" fill="none" stroke="#EF4444" stroke-width="1.1" stroke-linecap="round" stroke-linejoin="round"/><path pathLength="1" d="M145.2 52.3l.1 .1" fill="none" stroke="#EF4444" stroke-width="1.1" stroke-linecap="round" stroke-linejoin="round"/></svg></div><div class="deck-slide" data-slide="2" style="position:absolute;inset:0;container-type:size;overflow:hidden;background:#F6F0E4;color:#6B2412;font-family:Arial,Helvetica,sans-serif;"><div style="padding:7cqw 6cqw"><div style="font-size:2.6cqw;font-weight:700;letter-spacing:.3cqw;opacity:.85">GENESIS 9:16</div><div style="font-size:4.8cqw;line-height:1.35;margin-top:2.6cqw;white-space:nowrap">Whenever the rainbow appears in the<br/>clouds, I will see it and remember the<br/>everlasting covenant between God and<br/>all living creatures of every kind on<br/>the earth.</div></div></div></div></div><div style="display:flex;align-items:center;gap:2px;margin-top:6px;color:#212529"><span class="pv-tool" data-tool="laser" style="display:flex;align-items:center;justify-content:center;width:20px;height:20px;border-radius:4px"><svg viewBox="0 0 24 24" fill="none" stroke="currentColor" stroke-width="2" stroke-linecap="round" stroke-linejoin="round" style="display:block;flex:none;width:11px;height:11px"><path d="M15 4V2M15 16v-2M8 9h2M20 9h2M17.8 11.8 19 13M15 9h.01M17.8 6.2 19 5M3 21l9-9M12.2 6.2 11 5"/></svg></span><span class="pv-tool" data-tool="pencil" style="display:flex;align-items:center;justify-content:center;width:20px;height:20px;border-radius:4px"><svg viewBox="0 0 24 24" fill="none" stroke="currentColor" stroke-width="2" stroke-linecap="round" stroke-linejoin="round" style="display:block;flex:none;width:11px;height:11px"><path d="M21.17 6.81a1 1 0 0 0-3.98-3.98L3.84 16.17a2 2 0 0 0-.5.83l-1.32 4.35a.5.5 0 0 0 .62.62l4.35-1.32a2 2 0 0 0 .83-.5zM15 5l4 4"/></svg></span><span class="pv-tool" data-tool="highlight" style="display:flex;align-items:center;justify-content:center;width:20px;height:20px;border-radius:4px"><svg viewBox="0 0 24 24" fill="none" stroke="currentColor" stroke-width="2" stroke-linecap="round" stroke-linejoin="round" style="display:block;flex:none;width:11px;height:11px"><path d="M9 11l-6 6v3h9l3-3M22 12l-4.6 4.6a2 2 0 0 1-2.8 0l-5.2-5.2a2 2 0 0 1 0-2.8L14 4"/></svg></span><span class="pv-tool" data-tool="eraser" style="display:flex;align-items:center;justify-content:center;width:20px;height:20px;border-radius:4px"><svg viewBox="0 0 24 24" fill="none" stroke="currentColor" stroke-width="2" stroke-linecap="round" stroke-linejoin="round" style="display:block;flex:none;width:11px;height:11px"><path d="M7 21l-4.3-4.3c-1-1-1-2.5 0-3.4l9.6-9.6c1-1 2.5-1 3.4 0l5.6 5.6c1 1 1 2.5 0 3.4L13 21M22 21H7M5 11l9 9"/></svg></span><span style="margin-left:auto;padding:0 6px"><svg viewBox="0 0 24 24" fill="none" stroke="currentColor" stroke-width="2" stroke-linecap="round" stroke-linejoin="round" style="display:block;flex:none;width:10px;height:10px"><path d="M4 4h6v6H4zM14 4h6v6h-6zM4 14h6v6H4zM14 14h6v6h-6z"/></svg></span><span class="pv-count" style="font-size:8px;color:#6C757D;font-variant-numeric:tabular-nums">1 / 5</span></div><div style="display:flex;gap:8px;margin-top:7px"><div class="pv-preview" style="flex:1;min-width:0"><div class="deck" data-offset="-1" style="position:relative;width:100%;aspect-ratio:16/9;overflow:hidden;background:#F1F3F5;box-shadow:inset 0 0 0 1px #DEE2E6"><div style="position:absolute;inset:0;display:flex;align-items:center;justify-content:center;font-size:7px;color:#6C757D">Start of slides</div><div class="deck-slide" data-slide="0" style="position:absolute;inset:0;container-type:size;overflow:hidden;background:#F6F0E4;color:#6B2412;font-family:Arial,Helvetica,sans-serif;"><div style="padding:7cqw 6cqw"><div style="font-size:2.6cqw;font-weight:700;letter-spacing:.3cqw;opacity:.85">GENESIS 9:13</div><div style="font-size:4.8cqw;line-height:1.35;margin-top:2.6cqw;white-space:nowrap">I have set my rainbow in the clouds,<br/>and it will be the sign of the<br/>covenant between me and the earth.”</div></div></div><div class="deck-slide" data-slide="1" style="position:absolute;inset:0;container-type:size;overflow:hidden;background:#F6F0E4;color:#6B2412;font-family:Arial,Helvetica,sans-serif;"><div style="padding:7cqw 6cqw"><div style="font-size:2.6cqw;font-weight:700;letter-spacing:.3cqw;opacity:.85">GENESIS 9:14-15</div><div style="font-size:4.8cqw;line-height:1.35;margin-top:2.6cqw;white-space:nowrap">Whenever I bring clouds over the earth<br/>and the rainbow appears in the clouds,<br/>I will remember my covenant between<br/>me and you and all living creatures.</div></div><svg class="ink" data-tool="highlight" viewBox="0 0 160 90" style="position:absolute;inset:0;width:100%;height:100%;mix-blend-mode:multiply"><path pathLength="1" d="M9.6 36.4C39.6 36.9 98.0 35.8 138.0 36.4" fill="none" stroke="#FDE047" stroke-width="4.8" stroke-linecap="round" stroke-linejoin="round"/></svg><svg class="ink" data-tool="pencil" viewBox="0 0 160 90" style="position:absolute;inset:0;width:100%;height:100%"><path pathLength="1" d="M25.3 41.3C44.9 40.8 62.3 43.6 61.8 46.7C61.2 49.9 47.7 51.9 33.7 51.9C18.2 51.9 5.6 49.6 5.6 46.7C5.6 43.6 19.6 41.5 37.9 41.0" fill="none" stroke="#EF4444" stroke-width="1.1" stroke-linecap="round" stroke-linejoin="round"/><path pathLength="1" d="M141 38.7L140.4 48.7" fill="none" stroke="#EF4444" stroke-width="1.1" stroke-linecap="round" stroke-linejoin="round"/><path pathLength="1" d="M140.2 52.3l.1 .1" fill="none" stroke="#EF4444" stroke-width="1.1" stroke-linecap="round" stroke-linejoin="round"/><path pathLength="1" d="M146 38.7L145.4 48.7" fill="none" stroke="#EF4444" stroke-width="1.1" stroke-linecap="round" stroke-linejoin="round"/><path pathLength="1" d="M145.2 52.3l.1 .1" fill="none" stroke="#EF4444" stroke-width="1.1" stroke-linecap="round" stroke-linejoin="round"/></svg></div><div class="deck-slide" data-slide="2" style="position:absolute;inset:0;container-type:size;overflow:hidden;background:#F6F0E4;color:#6B2412;font-family:Arial,Helvetica,sans-serif;"><div style="padding:7cqw 6cqw"><div style="font-size:2.6cqw;font-weight:700;letter-spacing:.3cqw;opacity:.85">GENESIS 9:16</div><div style="font-size:4.8cqw;line-height:1.35;margin-top:2.6cqw;white-space:nowrap">Whenever the rainbow appears in the<br/>clouds, I will see it and remember the<br/>everlasting covenant between God and<br/>all living creatures of every kind on<br/>the earth.</div></div></div></div><div style="display:flex;justify-content:space-between;align-items:center;padding-top:3px;font-size:7px;color:#6C757D"><span style="display:flex;align-items:center;gap:2px"><svg viewBox="0 0 24 24" fill="none" stroke="currentColor" stroke-width="2" stroke-linecap="round" stroke-linejoin="round" style="display:block;flex:none;width:8px;height:8px"><path d="M15 18l-6-6 6-6"/></svg>Previous</span><span class="pv-prev-n" style="color:#ADB5BD"></span></div></div><div class="pv-preview" style="flex:1;min-width:0"><div class="deck" data-offset="1" style="position:relative;width:100%;aspect-ratio:16/9;overflow:hidden;background:#F1F3F5;box-shadow:inset 0 0 0 1px #DEE2E6"><div style="position:absolute;inset:0;display:flex;align-items:center;justify-content:center;font-size:7px;color:#6C757D">End of slides</div><div class="deck-slide" data-slide="0" style="position:absolute;inset:0;container-type:size;overflow:hidden;background:#F6F0E4;color:#6B2412;font-family:Arial,Helvetica,sans-serif;"><div style="padding:7cqw 6cqw"><div style="font-size:2.6cqw;font-weight:700;letter-spacing:.3cqw;opacity:.85">GENESIS 9:13</div><div style="font-size:4.8cqw;line-height:1.35;margin-top:2.6cqw;white-space:nowrap">I have set my rainbow in the clouds,<br/>and it will be the sign of the<br/>covenant between me and the earth.”</div></div></div><div class="deck-slide" data-slide="1" style="position:absolute;inset:0;container-type:size;overflow:hidden;background:#F6F0E4;color:#6B2412;font-family:Arial,Helvetica,sans-serif;"><div style="padding:7cqw 6cqw"><div style="font-size:2.6cqw;font-weight:700;letter-spacing:.3cqw;opacity:.85">GENESIS 9:14-15</div><div style="font-size:4.8cqw;line-height:1.35;margin-top:2.6cqw;white-space:nowrap">Whenever I bring clouds over the earth<br/>and the rainbow appears in the clouds,<br/>I will remember my covenant between<br/>me and you and all living creatures.</div></div><svg class="ink" data-tool="highlight" viewBox="0 0 160 90" style="position:absolute;inset:0;width:100%;height:100%;mix-blend-mode:multiply"><path pathLength="1" d="M9.6 36.4C39.6 36.9 98.0 35.8 138.0 36.4" fill="none" stroke="#FDE047" stroke-width="4.8" stroke-linecap="round" stroke-linejoin="round"/></svg><svg class="ink" data-tool="pencil" viewBox="0 0 160 90" style="position:absolute;inset:0;width:100%;height:100%"><path pathLength="1" d="M25.3 41.3C44.9 40.8 62.3 43.6 61.8 46.7C61.2 49.9 47.7 51.9 33.7 51.9C18.2 51.9 5.6 49.6 5.6 46.7C5.6 43.6 19.6 41.5 37.9 41.0" fill="none" stroke="#EF4444" stroke-width="1.1" stroke-linecap="round" stroke-linejoin="round"/><path pathLength="1" d="M141 38.7L140.4 48.7" fill="none" stroke="#EF4444" stroke-width="1.1" stroke-linecap="round" stroke-linejoin="round"/><path pathLength="1" d="M140.2 52.3l.1 .1" fill="none" stroke="#EF4444" stroke-width="1.1" stroke-linecap="round" stroke-linejoin="round"/><path pathLength="1" d="M146 38.7L145.4 48.7" fill="none" stroke="#EF4444" stroke-width="1.1" stroke-linecap="round" stroke-linejoin="round"/><path pathLength="1" d="M145.2 52.3l.1 .1" fill="none" stroke="#EF4444" stroke-width="1.1" stroke-linecap="round" stroke-linejoin="round"/></svg></div><div class="deck-slide" data-slide="2" style="position:absolute;inset:0;container-type:size;overflow:hidden;background:#F6F0E4;color:#6B2412;font-family:Arial,Helvetica,sans-serif;"><div style="padding:7cqw 6cqw"><div style="font-size:2.6cqw;font-weight:700;letter-spacing:.3cqw;opacity:.85">GENESIS 9:16</div><div style="font-size:4.8cqw;line-height:1.35;margin-top:2.6cqw;white-space:nowrap">Whenever the rainbow appears in the<br/>clouds, I will see it and remember the<br/>everlasting covenant between God and<br/>all living creatures of every kind on<br/>the earth.</div></div></div></div><div style="display:flex;justify-content:space-between;align-items:center;padding-top:3px;font-size:7px;color:#6C757D"><span style="display:flex;align-items:center;gap:2px"><svg viewBox="0 0 24 24" fill="none" stroke="currentColor" stroke-width="2" stroke-linecap="round" stroke-linejoin="round" style="display:block;flex:none;width:8px;height:8px"><path d="M9 18l6-6-6-6"/></svg>Next</span><span class="pv-next-n" style="color:#ADB5BD"></span></div></div></div></div><div style="width:38%;border-left:1px solid #DEE2E6;background:#F8F9FA;display:flex;flex-direction:column;min-height:0"><div style="height:26px;flex:none;display:flex;align-items:center;gap:4px;padding:0 10px;padding-right:28px;border-bottom:1px solid #DEE2E6;font-size:7px;font-weight:600;letter-spacing:.06em;text-transform:uppercase;color:#6C757D"><svg viewBox="0 0 24 24" fill="none" stroke="currentColor" stroke-width="2" stroke-linecap="round" stroke-linejoin="round" style="display:block;flex:none;width:9px;height:9px"><path d="M4 4h16v12H8l-4 4zM8 8h8M8 12h5"/></svg>Speaker notes<span style="margin-left:auto;display:flex;align-items:center;gap:2px;text-transform:none;letter-spacing:0;color:#212529"><svg viewBox="0 0 24 24" fill="none" stroke="currentColor" stroke-width="2" stroke-linecap="round" stroke-linejoin="round" style="display:block;flex:none;width:8px;height:8px"><path d="M12 20h9M16.5 3.5a2.1 2.1 0 0 1 3 3L7 19l-4 1 1-4z"/></svg>Edit</span></div><div class="pv-notes" style="flex:1;padding:10px;font-size:9.5px;line-height:1.5;color:#212529"></div><div style="flex:none;border-top:1px solid #DEE2E6;padding:6px 10px;display:flex;align-items:center;justify-content:space-between"><span style="font-family:ui-monospace,Menlo,Consolas,monospace;font-size:19px;color:#212529;font-variant-numeric:tabular-nums">12:40</span><span style="display:flex;gap:4px"><span style="display:flex;width:20px;height:20px;align-items:center;justify-content:center;border:1px solid #DEE2E6;border-radius:4px;background:#fff;color:#212529"><svg viewBox="0 0 24 24" fill="none" stroke="currentColor" stroke-width="2" stroke-linecap="round" stroke-linejoin="round" style="display:block;flex:none;width:10px;height:10px"><path d="M8 5v14M16 5v14"/></svg></span><span style="display:flex;width:20px;height:20px;align-items:center;justify-content:center;border:1px solid #DEE2E6;border-radius:4px;background:#fff;color:#212529"><svg viewBox="0 0 24 24" fill="none" stroke="currentColor" stroke-width="2" stroke-linecap="round" stroke-linejoin="round" style="display:block;flex:none;width:10px;height:10px"><path d="M3 12a9 9 0 1 0 3-6.7L3 8M3 3v5h5"/></svg></span></span></div></div><span style="position:absolute;right:6px;top:5px;color:#212529"><svg viewBox="0 0 24 24" fill="none" stroke="currentColor" stroke-width="2" stroke-linecap="round" stroke-linejoin="round" style="display:block;flex:none;width:11px;height:11px"><path d="M6 6l12 12M18 6 6 18"/></svg></span><div class="pv-cursor" style="position:absolute;left:45%;top:55%;width:0;height:0;z-index:5"><span class="pv-click"></span><svg viewBox="0 0 24 24" style="position:absolute;left:-2px;top:-2px;width:16px;height:16px;filter:drop-shadow(0 1px 2px rgba(0,0,0,.35))"><path d="M3 2l17 8.5-7.2 1.8L9 20z" fill="#E4572E" stroke="#fff" stroke-width="1.6" stroke-linejoin="round"/></svg><span style="position:absolute;left:11px;top:12px;white-space:nowrap;border-radius:3px;padding:1px 5px;font-size:8.5px;font-weight:700;color:#fff;background:#E4572E">Pastor</span></div></div></foreignObject><circle cx="600.0" cy="244.5" r="3.5" fill="#3ABAB4"/><circle cx="748.0" cy="227.0" r="3.5" fill="#3ABAB4"/><circle cx="925.2" cy="392.0" r="3.5" fill="#3ABAB4"/><circle cx="318.0" cy="348.0" r="3.5" fill="#3ABAB4"/><g transform="translate(680 290)"><rect x="-46" y="-18" width="92" height="36" rx="18" fill="#0B0B0C" stroke="#3A3B41"/><g transform="translate(-22 2)" fill="none" stroke="#3ABAB4" stroke-width="2.2" stroke-linecap="round"><path d="M-9 -4a13 13 0 0 1 18 0"/><path d="M-5 0a7 7 0 0 1 10 0"/></g><circle cx="-22" cy="6" r="2" fill="#3ABAB4"/><text x="10" y="5" text-anchor="middle" font-size="14" font-weight="600" fill="#EDEDEF">Wi-Fi</text></g></svg>
